<svg xmlns="http://www.w3.org/2000/svg" width="296.79" height="296.81" viewBox="0 0 296.79 296.81">
  <defs>
    <style>
      .cls-1 {
        font-size: 37px;
        fill: #231f20;
        font-family: InterUI-Black, Inter UI;
        font-weight: 800;
      }
    </style>
  </defs>
  <title>circle</title>
  <g id="Layer_2" data-name="Layer 2">
    <g id="Layer_1-2" data-name="Layer 1">
      <text class="cls-1" transform="translate(147.73 30.75) rotate(7.82)">W</text>
      <text class="cls-1" transform="matrix(0.92, 0.39, -0.39, 0.92, 180.53, 35.53)">O</text>
      <text class="cls-1" transform="matrix(0.81, 0.58, -0.58, 0.81, 206.43, 46.73)">R</text>
      <text class="cls-1" transform="translate(225.82 60.38) rotate(47.9)">K</text>
      <text class="cls-1" transform="translate(243.55 81.05) rotate(57.13)"> </text>
      <text class="cls-1" transform="translate(250.12 89.2) rotate(68)">W</text>
      <text class="cls-1" transform="translate(262.28 120.05) rotate(83.06)">O</text>
      <text class="cls-1" transform="matrix(-0.1, 1, -1, -0.1, 265.45, 148.09)">R</text>
      <text class="cls-1" transform="translate(263.33 171.69) rotate(108.03)">K</text>
      <text class="cls-1" transform="translate(254.22 197.35) rotate(117.35)"> </text>
      <text class="cls-1" transform="translate(250.4 207.1) rotate(128.17)">W</text>
      <text class="cls-1" transform="translate(229.69 233) rotate(143.07)">O</text>
      <text class="cls-1" transform="matrix(-0.91, 0.41, -0.41, -0.91, 207, 249.76)">R</text>
      <text class="cls-1" transform="translate(185.49 259.65) rotate(168.21)">K</text>
      <text class="cls-1" transform="translate(158.69 264.52) rotate(177.46)"> </text>
      <text class="cls-1" transform="translate(148.31 266.06) rotate(-171.81)">W</text>
      <text class="cls-1" transform="translate(115.55 261.07) rotate(-156.74)">O</text>
      <text class="cls-1" transform="translate(89.73 249.71) rotate(-144.09)">R</text>
      <text class="cls-1" transform="matrix(-0.67, -0.75, 0.75, -0.67, 70.43, 235.94)">K</text>
      <text class="cls-1" transform="matrix(-0.54, -0.84, 0.84, -0.54, 52.83, 215.15)"> </text>
      <text class="cls-1" transform="translate(46.31 206.95) rotate(-111.63)">W</text>
      <text class="cls-1" transform="translate(34.34 176.02) rotate(-96.57)">O</text>
      <text class="cls-1" transform="translate(31.36 147.96) rotate(-84.07)">R</text>
      <text class="cls-1" transform="translate(33.63 124.39) rotate(-71.6)">K</text>
      <text class="cls-1" transform="matrix(0.47, -0.89, 0.89, 0.47, 42.9, 98.78)"> </text>
      <text class="cls-1" transform="matrix(0.62, -0.78, 0.78, 0.62, 46.78, 89.06)">W</text>
      <text class="cls-1" transform="translate(67.67 63.28) rotate(-36.56)">O</text>
      <text class="cls-1" transform="translate(90.46 46.68) rotate(-23.91)">R</text>
      <text class="cls-1" transform="matrix(0.98, -0.2, 0.2, 0.98, 112.05, 36.91)">K</text>
      <text class="cls-1" transform="translate(138.88 32.23) rotate(-2.17)"> </text>
    </g>
  </g>
</svg>