<svg xmlns="http://www.w3.org/2000/svg" width="494" height="109.88" viewBox="0 0 494 109.88">
  <defs>
    <style>
      .cls-1 {
        fill: #231f20;
      }
    </style>
  </defs>
  <title>wrk</title>
  <g id="Layer_2" data-name="Layer 2">
    <g id="Layer_1-2" data-name="Layer 1">
      <path class="cls-1" d="M446.35,52,489.92,0H454.66L419.83,45.32V0H391.26V109.88h28.57V62.23L457,109.88h37L446.35,52Zm-61.21,57.85-34.54-45q11.81-2.76,17.85-10.57T374.5,34a37.48,37.48,0,0,0-2.26-13.12,30.12,30.12,0,0,0-18-18.14,43.58,43.58,0,0,0-16-2.7H293.77V109.88h28.56V67.62l27.25,42.26ZM345.21,35.56q0,6.55-4.52,10t-13,3.5h-5.39V22h5.39q8.46,0,13,3.49t4.52,10.06Zm-211,74.32L167,0H137.13L118.19,71,94.87,0H72.14L48.82,71,29.88,0H0L32.79,109.88H61.94L83.5,46.2l21.57,63.68Z"/>
    </g>
  </g>
</svg>
